<mxfile host="app.diagrams.net" agent="Mozilla/5.0 (Windows NT 10.0; Win64; x64) AppleWebKit/537.36 (KHTML, like Gecko) Chrome/137.0.0.0 Safari/537.36 Edg/137.0.0.0" version="27.0.5" pages="2">
  <diagram name="Page-1" id="W0VntjW1LD9zm3vmaQY-">
    <mxGraphModel dx="1206" dy="774" grid="1" gridSize="10" guides="1" tooltips="1" connect="1" arrows="1" fold="1" page="1" pageScale="1" pageWidth="850" pageHeight="1100" math="0" shadow="0">
      <root>
        <mxCell id="0" />
        <mxCell id="1" parent="0" />
        <mxCell id="Gvv-gU3nkDhd7mVoFkMg-1" value="FastAPI Application" style="shape=rectangle;rounded=1;whiteSpace=wrap;html=1;fillColor=#dae8fc;strokeColor=#6c8ebf;" parent="1" vertex="1">
          <mxGeometry x="80" y="40" width="200" height="60" as="geometry" />
        </mxCell>
        <mxCell id="Gvv-gU3nkDhd7mVoFkMg-2" value="Check alembic.ini exists?" style="shape=rhombus;whiteSpace=wrap;html=1;fillColor=#e1d5e7;strokeColor=#9673a6;" parent="1" vertex="1">
          <mxGeometry x="80" y="120" width="160" height="80" as="geometry" />
        </mxCell>
        <mxCell id="Gvv-gU3nkDhd7mVoFkMg-6" value="Migration File generated?" style="shape=rhombus;whiteSpace=wrap;html=1;fillColor=#f5f5f5;strokeColor=#666666;" parent="1" vertex="1">
          <mxGeometry x="280" y="400" width="160" height="80" as="geometry" />
        </mxCell>
        <mxCell id="Gvv-gU3nkDhd7mVoFkMg-7" value="Database - Responds with migration status" style="shape=cylinder;whiteSpace=wrap;html=1;boundedLbl=1;fillColor=#ffffff;strokeColor=#000000;" parent="1" vertex="1">
          <mxGeometry x="550" y="390" width="200" height="60" as="geometry" />
        </mxCell>
        <mxCell id="Gvv-gU3nkDhd7mVoFkMg-8" value="App Startup Complete" style="shape=ellipse;whiteSpace=wrap;html=1;fillColor=#dae8fc;strokeColor=#6c8ebf;" parent="1" vertex="1">
          <mxGeometry x="280" y="550" width="160" height="60" as="geometry" />
        </mxCell>
        <mxCell id="Gvv-gU3nkDhd7mVoFkMg-9" style="endArrow=block;html=1;strokeColor=#000000;" parent="1" source="Gvv-gU3nkDhd7mVoFkMg-1" target="Gvv-gU3nkDhd7mVoFkMg-2" edge="1">
          <mxGeometry relative="1" as="geometry" />
        </mxCell>
        <mxCell id="Gvv-gU3nkDhd7mVoFkMg-10" value="Yes" style="endArrow=block;html=1;strokeColor=#000000;entryX=0;entryY=0.25;entryDx=0;entryDy=0;exitX=1;exitY=0.5;exitDx=0;exitDy=0;" parent="1" source="Gvv-gU3nkDhd7mVoFkMg-2" target="Gvv-gU3nkDhd7mVoFkMg-18" edge="1">
          <mxGeometry relative="1" as="geometry">
            <mxPoint x="290" y="148.695652173913" as="targetPoint" />
          </mxGeometry>
        </mxCell>
        <mxCell id="Gvv-gU3nkDhd7mVoFkMg-11" value="No" style="endArrow=block;dashed=1;html=1;strokeColor=#ff0000;exitX=0.5;exitY=1;exitDx=0;exitDy=0;entryX=0.5;entryY=0;entryDx=0;entryDy=0;" parent="1" source="Gvv-gU3nkDhd7mVoFkMg-2" target="Gvv-gU3nkDhd7mVoFkMg-27" edge="1">
          <mxGeometry relative="1" as="geometry" />
        </mxCell>
        <mxCell id="Gvv-gU3nkDhd7mVoFkMg-12" style="endArrow=block;html=1;strokeColor=#000000;entryX=0.5;entryY=0;entryDx=0;entryDy=0;exitX=0.471;exitY=1.022;exitDx=0;exitDy=0;exitPerimeter=0;" parent="1" source="Gvv-gU3nkDhd7mVoFkMg-45" target="Gvv-gU3nkDhd7mVoFkMg-22" edge="1">
          <mxGeometry relative="1" as="geometry">
            <mxPoint x="387" y="170" as="sourcePoint" />
            <mxPoint x="384" y="200" as="targetPoint" />
          </mxGeometry>
        </mxCell>
        <mxCell id="Gvv-gU3nkDhd7mVoFkMg-14" style="endArrow=block;html=1;strokeColor=#000000;exitX=0.488;exitY=1.148;exitDx=0;exitDy=0;exitPerimeter=0;entryX=0.5;entryY=0;entryDx=0;entryDy=0;" parent="1" source="Gvv-gU3nkDhd7mVoFkMg-24" target="Gvv-gU3nkDhd7mVoFkMg-6" edge="1">
          <mxGeometry relative="1" as="geometry">
            <mxPoint x="365.9999999999998" y="380" as="sourcePoint" />
          </mxGeometry>
        </mxCell>
        <mxCell id="Gvv-gU3nkDhd7mVoFkMg-47" value="Migration_generated flal" style="edgeLabel;html=1;align=center;verticalAlign=middle;resizable=0;points=[];" parent="Gvv-gU3nkDhd7mVoFkMg-14" vertex="1" connectable="0">
          <mxGeometry x="0.0184" y="1" relative="1" as="geometry">
            <mxPoint as="offset" />
          </mxGeometry>
        </mxCell>
        <mxCell id="Gvv-gU3nkDhd7mVoFkMg-15" value="True" style="endArrow=block;html=1;strokeColor=#000000;" parent="1" source="Gvv-gU3nkDhd7mVoFkMg-6" target="Gvv-gU3nkDhd7mVoFkMg-7" edge="1">
          <mxGeometry x="-0.0896" y="1" relative="1" as="geometry">
            <mxPoint as="offset" />
          </mxGeometry>
        </mxCell>
        <mxCell id="Gvv-gU3nkDhd7mVoFkMg-16" value="False" style="endArrow=block;dashed=1;html=1;strokeColor=#ff0000;entryX=1;entryY=0;entryDx=0;entryDy=0;exitX=0;exitY=0.5;exitDx=0;exitDy=0;" parent="1" source="Gvv-gU3nkDhd7mVoFkMg-6" target="Gvv-gU3nkDhd7mVoFkMg-27" edge="1">
          <mxGeometry relative="1" as="geometry" />
        </mxCell>
        <mxCell id="Gvv-gU3nkDhd7mVoFkMg-17" style="endArrow=block;html=1;strokeColor=#000000;exitX=0.5;exitY=1;exitDx=0;exitDy=0;entryX=0.5;entryY=0;entryDx=0;entryDy=0;" parent="1" source="Gvv-gU3nkDhd7mVoFkMg-7" target="Gvv-gU3nkDhd7mVoFkMg-28" edge="1">
          <mxGeometry relative="1" as="geometry">
            <mxPoint x="651.4242857142858" y="470" as="sourcePoint" />
            <mxPoint x="479.9957142857142" y="550" as="targetPoint" />
          </mxGeometry>
        </mxCell>
        <mxCell id="Gvv-gU3nkDhd7mVoFkMg-18" value="Alembic Configurator Env.py file" style="swimlane;fontStyle=0;childLayout=stackLayout;horizontal=1;startSize=30;horizontalStack=0;resizeParent=1;resizeParentMax=0;resizeLast=0;collapsible=1;marginBottom=0;whiteSpace=wrap;html=1;fillColor=#d5e8d4;strokeColor=#82b366;" parent="1" vertex="1">
          <mxGeometry x="320" y="60" width="290" height="120" as="geometry" />
        </mxCell>
        <mxCell id="Gvv-gU3nkDhd7mVoFkMg-19" value="&lt;div&gt;&lt;span style=&quot;text-align: center;&quot;&gt;Target_metadata&lt;/span&gt;&lt;/div&gt;" style="text;strokeColor=none;fillColor=none;align=left;verticalAlign=middle;spacingLeft=4;spacingRight=4;overflow=hidden;points=[[0,0.5],[1,0.5]];portConstraint=eastwest;rotatable=0;whiteSpace=wrap;html=1;" parent="Gvv-gU3nkDhd7mVoFkMg-18" vertex="1">
          <mxGeometry y="30" width="290" height="30" as="geometry" />
        </mxCell>
        <mxCell id="Gvv-gU3nkDhd7mVoFkMg-20" value="Ensure no empty migrations" style="text;strokeColor=none;fillColor=none;align=left;verticalAlign=middle;spacingLeft=4;spacingRight=4;overflow=hidden;points=[[0,0.5],[1,0.5]];portConstraint=eastwest;rotatable=0;whiteSpace=wrap;html=1;" parent="Gvv-gU3nkDhd7mVoFkMg-18" vertex="1">
          <mxGeometry y="60" width="290" height="30" as="geometry" />
        </mxCell>
        <mxCell id="Gvv-gU3nkDhd7mVoFkMg-45" value="&lt;span style=&quot;text-align: center;&quot;&gt;Define process_revision_directives (no empty migration files)&lt;/span&gt;" style="text;strokeColor=none;fillColor=none;align=left;verticalAlign=middle;spacingLeft=4;spacingRight=4;overflow=hidden;points=[[0,0.5],[1,0.5]];portConstraint=eastwest;rotatable=0;whiteSpace=wrap;html=1;" parent="Gvv-gU3nkDhd7mVoFkMg-18" vertex="1">
          <mxGeometry y="90" width="290" height="30" as="geometry" />
        </mxCell>
        <mxCell id="Gvv-gU3nkDhd7mVoFkMg-22" value="Migration Runner" style="swimlane;fontStyle=0;childLayout=stackLayout;horizontal=1;startSize=30;horizontalStack=0;resizeParent=1;resizeParentMax=0;resizeLast=0;collapsible=1;marginBottom=0;whiteSpace=wrap;html=1;fillColor=#fff2cc;strokeColor=#d6b656;" parent="1" vertex="1">
          <mxGeometry x="310" y="230" width="200" height="90" as="geometry" />
        </mxCell>
        <mxCell id="Gvv-gU3nkDhd7mVoFkMg-23" value="&lt;span style=&quot;text-align: center;&quot;&gt;&amp;nbsp;Autogenerate migration file&lt;/span&gt;" style="text;strokeColor=none;fillColor=none;align=left;verticalAlign=middle;spacingLeft=4;spacingRight=4;overflow=hidden;points=[[0,0.5],[1,0.5]];portConstraint=eastwest;rotatable=0;whiteSpace=wrap;html=1;" parent="Gvv-gU3nkDhd7mVoFkMg-22" vertex="1">
          <mxGeometry y="30" width="200" height="30" as="geometry" />
        </mxCell>
        <mxCell id="Gvv-gU3nkDhd7mVoFkMg-24" value="&lt;span style=&quot;text-align: center;&quot;&gt;Set migration_generated flag&lt;/span&gt;" style="text;strokeColor=none;fillColor=none;align=left;verticalAlign=middle;spacingLeft=4;spacingRight=4;overflow=hidden;points=[[0,0.5],[1,0.5]];portConstraint=eastwest;rotatable=0;whiteSpace=wrap;html=1;" parent="Gvv-gU3nkDhd7mVoFkMg-22" vertex="1">
          <mxGeometry y="60" width="200" height="30" as="geometry" />
        </mxCell>
        <mxCell id="Gvv-gU3nkDhd7mVoFkMg-40" style="rounded=0;orthogonalLoop=1;jettySize=auto;html=1;exitX=1;exitY=1;exitDx=0;exitDy=0;entryX=0;entryY=0.5;entryDx=0;entryDy=0;" parent="1" source="Gvv-gU3nkDhd7mVoFkMg-27" target="Gvv-gU3nkDhd7mVoFkMg-8" edge="1">
          <mxGeometry relative="1" as="geometry" />
        </mxCell>
        <mxCell id="Gvv-gU3nkDhd7mVoFkMg-27" value="Error" style="ellipse;whiteSpace=wrap;html=1;" parent="1" vertex="1">
          <mxGeometry x="80" y="450" width="120" height="80" as="geometry" />
        </mxCell>
        <mxCell id="Gvv-gU3nkDhd7mVoFkMg-29" value="No Error" style="rounded=0;orthogonalLoop=1;jettySize=auto;html=1;entryX=1;entryY=0.5;entryDx=0;entryDy=0;align=center;" parent="1" source="Gvv-gU3nkDhd7mVoFkMg-28" target="Gvv-gU3nkDhd7mVoFkMg-8" edge="1">
          <mxGeometry x="-0.0391" y="-1" relative="1" as="geometry">
            <mxPoint as="offset" />
          </mxGeometry>
        </mxCell>
        <mxCell id="Gvv-gU3nkDhd7mVoFkMg-36" style="edgeStyle=orthogonalEdgeStyle;rounded=0;orthogonalLoop=1;jettySize=auto;html=1;entryX=0.5;entryY=1;entryDx=0;entryDy=0;" parent="1" source="Gvv-gU3nkDhd7mVoFkMg-28" target="Gvv-gU3nkDhd7mVoFkMg-27" edge="1">
          <mxGeometry relative="1" as="geometry">
            <Array as="points">
              <mxPoint x="650" y="650" />
              <mxPoint x="140" y="650" />
            </Array>
          </mxGeometry>
        </mxCell>
        <mxCell id="Gvv-gU3nkDhd7mVoFkMg-39" value="Error" style="edgeLabel;html=1;align=center;verticalAlign=middle;resizable=0;points=[];" parent="Gvv-gU3nkDhd7mVoFkMg-36" vertex="1" connectable="0">
          <mxGeometry x="-0.1284" y="-1" relative="1" as="geometry">
            <mxPoint as="offset" />
          </mxGeometry>
        </mxCell>
        <mxCell id="Gvv-gU3nkDhd7mVoFkMg-28" value="Status Error" style="rhombus;whiteSpace=wrap;html=1;" parent="1" vertex="1">
          <mxGeometry x="610" y="530" width="80" height="80" as="geometry" />
        </mxCell>
        <mxCell id="Gvv-gU3nkDhd7mVoFkMg-48" value="Alembic Configurator&amp;nbsp;" style="swimlane;fontStyle=0;childLayout=stackLayout;horizontal=1;startSize=30;horizontalStack=0;resizeParent=1;resizeParentMax=0;resizeLast=0;collapsible=1;marginBottom=0;whiteSpace=wrap;html=1;fillColor=#d5e8d4;strokeColor=#82b366;" parent="1" vertex="1">
          <mxGeometry x="610" y="60" width="290" height="120" as="geometry" />
        </mxCell>
        <mxCell id="Gvv-gU3nkDhd7mVoFkMg-49" value="&lt;div&gt;&lt;span style=&quot;text-align: center;&quot;&gt;Set SQLAlchemy URL&lt;/span&gt;&lt;/div&gt;" style="text;strokeColor=none;fillColor=none;align=left;verticalAlign=middle;spacingLeft=4;spacingRight=4;overflow=hidden;points=[[0,0.5],[1,0.5]];portConstraint=eastwest;rotatable=0;whiteSpace=wrap;html=1;" parent="Gvv-gU3nkDhd7mVoFkMg-48" vertex="1">
          <mxGeometry y="30" width="290" height="30" as="geometry" />
        </mxCell>
        <mxCell id="Gvv-gU3nkDhd7mVoFkMg-50" value="Ensure no empty migrations" style="text;strokeColor=none;fillColor=none;align=left;verticalAlign=middle;spacingLeft=4;spacingRight=4;overflow=hidden;points=[[0,0.5],[1,0.5]];portConstraint=eastwest;rotatable=0;whiteSpace=wrap;html=1;" parent="Gvv-gU3nkDhd7mVoFkMg-48" vertex="1">
          <mxGeometry y="60" width="290" height="30" as="geometry" />
        </mxCell>
        <mxCell id="Gvv-gU3nkDhd7mVoFkMg-51" value="&lt;span style=&quot;text-align: center;&quot;&gt;Define process_revision_directives (no empty migration files)&lt;/span&gt;" style="text;strokeColor=none;fillColor=none;align=left;verticalAlign=middle;spacingLeft=4;spacingRight=4;overflow=hidden;points=[[0,0.5],[1,0.5]];portConstraint=eastwest;rotatable=0;whiteSpace=wrap;html=1;" parent="Gvv-gU3nkDhd7mVoFkMg-48" vertex="1">
          <mxGeometry y="90" width="290" height="30" as="geometry" />
        </mxCell>
      </root>
    </mxGraphModel>
  </diagram>
  <diagram id="U85okSEyILuKT7GblJGp" name="Page-2">
    <mxGraphModel dx="1206" dy="774" grid="1" gridSize="10" guides="1" tooltips="1" connect="1" arrows="1" fold="1" page="1" pageScale="1" pageWidth="850" pageHeight="1100" math="0" shadow="0">
      <root>
        <mxCell id="0" />
        <mxCell id="1" parent="0" />
        <mxCell id="UV5Lsy4TpbS2QLUdCZGZ-1" style="shape=ellipse;fillColor=#000000;strokeColor=#000000;" vertex="1" parent="1">
          <mxGeometry x="100" y="40" width="20" height="20" as="geometry" />
        </mxCell>
        <mxCell id="UV5Lsy4TpbS2QLUdCZGZ-2" value="Initialize FastAPI App" style="shape=rectangle;rounded=1;whiteSpace=wrap;html=1;fillColor=#dae8fc;" vertex="1" parent="1">
          <mxGeometry x="80" y="80" width="200" height="40" as="geometry" />
        </mxCell>
        <mxCell id="UV5Lsy4TpbS2QLUdCZGZ-3" value="alembic.ini exists?" style="shape=rhombus;whiteSpace=wrap;html=1;fillColor=#ffe6cc;" vertex="1" parent="1">
          <mxGeometry x="100" y="150" width="140" height="60" as="geometry" />
        </mxCell>
        <mxCell id="UV5Lsy4TpbS2QLUdCZGZ-4" value="Load Alembic Config" style="shape=rectangle;rounded=1;whiteSpace=wrap;html=1;fillColor=#d5e8d4;" vertex="1" parent="1">
          <mxGeometry x="300" y="150" width="180" height="40" as="geometry" />
        </mxCell>
        <mxCell id="UV5Lsy4TpbS2QLUdCZGZ-5" value="Autogenerate Migration" style="shape=rectangle;rounded=1;whiteSpace=wrap;html=1;fillColor=#fff2cc;" vertex="1" parent="1">
          <mxGeometry x="300" y="220" width="180" height="40" as="geometry" />
        </mxCell>
        <mxCell id="UV5Lsy4TpbS2QLUdCZGZ-6" value="Migration Generated?" style="shape=rhombus;whiteSpace=wrap;html=1;fillColor=#ffe6cc;" vertex="1" parent="1">
          <mxGeometry x="320" y="290" width="140" height="60" as="geometry" />
        </mxCell>
        <mxCell id="UV5Lsy4TpbS2QLUdCZGZ-7" value="Apply Migration to DB" style="shape=rectangle;rounded=1;whiteSpace=wrap;html=1;fillColor=#e1d5e7;" vertex="1" parent="1">
          <mxGeometry x="300" y="370" width="180" height="40" as="geometry" />
        </mxCell>
        <mxCell id="UV5Lsy4TpbS2QLUdCZGZ-8" style="shape=ellipse;fillColor=#000000;strokeColor=#000000;" vertex="1" parent="1">
          <mxGeometry x="360" y="440" width="20" height="20" as="geometry" />
        </mxCell>
        <mxCell id="UV5Lsy4TpbS2QLUdCZGZ-9" value="Log Error / Exit" style="shape=rectangle;rounded=1;whiteSpace=wrap;html=1;fillColor=#f8cecc;" vertex="1" parent="1">
          <mxGeometry x="80" y="290" width="140" height="40" as="geometry" />
        </mxCell>
        <mxCell id="UV5Lsy4TpbS2QLUdCZGZ-10" style="endArrow=block;" edge="1" parent="1" source="UV5Lsy4TpbS2QLUdCZGZ-1" target="UV5Lsy4TpbS2QLUdCZGZ-2">
          <mxGeometry relative="1" as="geometry" />
        </mxCell>
        <mxCell id="UV5Lsy4TpbS2QLUdCZGZ-11" style="endArrow=block;" edge="1" parent="1" source="UV5Lsy4TpbS2QLUdCZGZ-2" target="UV5Lsy4TpbS2QLUdCZGZ-3">
          <mxGeometry relative="1" as="geometry" />
        </mxCell>
        <mxCell id="UV5Lsy4TpbS2QLUdCZGZ-12" value="Yes" style="endArrow=block;" edge="1" parent="1" source="UV5Lsy4TpbS2QLUdCZGZ-3" target="UV5Lsy4TpbS2QLUdCZGZ-4">
          <mxGeometry relative="1" as="geometry" />
        </mxCell>
        <mxCell id="UV5Lsy4TpbS2QLUdCZGZ-13" style="endArrow=block;" edge="1" parent="1" source="UV5Lsy4TpbS2QLUdCZGZ-4" target="UV5Lsy4TpbS2QLUdCZGZ-5">
          <mxGeometry relative="1" as="geometry" />
        </mxCell>
        <mxCell id="UV5Lsy4TpbS2QLUdCZGZ-14" style="endArrow=block;" edge="1" parent="1" source="UV5Lsy4TpbS2QLUdCZGZ-5" target="UV5Lsy4TpbS2QLUdCZGZ-6">
          <mxGeometry relative="1" as="geometry" />
        </mxCell>
        <mxCell id="UV5Lsy4TpbS2QLUdCZGZ-15" value="Yes" style="endArrow=block;" edge="1" parent="1" source="UV5Lsy4TpbS2QLUdCZGZ-6" target="UV5Lsy4TpbS2QLUdCZGZ-7">
          <mxGeometry relative="1" as="geometry" />
        </mxCell>
        <mxCell id="UV5Lsy4TpbS2QLUdCZGZ-16" style="endArrow=block;" edge="1" parent="1" source="UV5Lsy4TpbS2QLUdCZGZ-7" target="UV5Lsy4TpbS2QLUdCZGZ-8">
          <mxGeometry relative="1" as="geometry" />
        </mxCell>
        <mxCell id="UV5Lsy4TpbS2QLUdCZGZ-17" value="No" style="endArrow=block;dashed=1;strokeColor=#ff0000;" edge="1" parent="1" source="UV5Lsy4TpbS2QLUdCZGZ-3" target="UV5Lsy4TpbS2QLUdCZGZ-9">
          <mxGeometry relative="1" as="geometry" />
        </mxCell>
        <mxCell id="UV5Lsy4TpbS2QLUdCZGZ-18" value="No" style="endArrow=block;dashed=1;strokeColor=#ff0000;" edge="1" parent="1" source="UV5Lsy4TpbS2QLUdCZGZ-6" target="UV5Lsy4TpbS2QLUdCZGZ-9">
          <mxGeometry relative="1" as="geometry" />
        </mxCell>
        <mxCell id="UV5Lsy4TpbS2QLUdCZGZ-19" style="endArrow=block;" edge="1" parent="1" source="UV5Lsy4TpbS2QLUdCZGZ-9" target="UV5Lsy4TpbS2QLUdCZGZ-8">
          <mxGeometry relative="1" as="geometry" />
        </mxCell>
        <mxCell id="UV5Lsy4TpbS2QLUdCZGZ-20" value="&lt;&lt;class&gt;&gt;\nFastAPIApp\n\n- app: FastAPI\n\n+ __init__()\n+ run()" style="rounded=0;whiteSpace=wrap;html=1;strokeColor=#000000;fillColor=#dae8fc;" vertex="1" parent="1">
          <mxGeometry x="60" y="550" width="200" height="140" as="geometry" />
        </mxCell>
        <mxCell id="UV5Lsy4TpbS2QLUdCZGZ-21" value="&lt;&lt;class&gt;&gt;\nAlembicManager\n\n- config_path: str\n- alembic_cfg: Config\n\n+ __init__(config_path: str)\n+ load_config()\n+ autogenerate_migration()\n+ apply_migration()" style="rounded=0;whiteSpace=wrap;html=1;strokeColor=#000000;fillColor=#d5e8d4;" vertex="1" parent="1">
          <mxGeometry x="300" y="550" width="280" height="160" as="geometry" />
        </mxCell>
      </root>
    </mxGraphModel>
  </diagram>
</mxfile>
